<svg id="visual" viewBox="0 0 900 100" width="900" height="100" xmlns="http://www.w3.org/2000/svg" xmlns:xlink="http://www.w3.org/1999/xlink" version="1.1"><rect x="0" y="0" width="900" height="100" fill="#fff"></rect><path d="M0 30L21.5 31.7C43 33.3 86 36.7 128.8 37.3C171.7 38 214.3 36 257.2 34C300 32 343 30 385.8 29.2C428.7 28.3 471.3 28.7 514.2 30C557 31.3 600 33.7 642.8 34.5C685.7 35.3 728.3 34.7 771.2 34.5C814 34.3 857 34.7 878.5 34.8L900 35L900 0L878.5 0C857 0 814 0 771.2 0C728.3 0 685.7 0 642.8 0C600 0 557 0 514.2 0C471.3 0 428.7 0 385.8 0C343 0 300 0 257.2 0C214.3 0 171.7 0 128.8 0C86 0 43 0 21.5 0L0 0Z" fill="#6751ea"></path><path d="M0 21L21.5 20.7C43 20.3 86 19.7 128.8 20.2C171.7 20.7 214.3 22.3 257.2 24.5C300 26.7 343 29.3 385.8 30.7C428.7 32 471.3 32 514.2 32.2C557 32.3 600 32.7 642.8 31.8C685.7 31 728.3 29 771.2 28.7C814 28.3 857 29.7 878.5 30.3L900 31L900 0L878.5 0C857 0 814 0 771.2 0C728.3 0 685.7 0 642.8 0C600 0 557 0 514.2 0C471.3 0 428.7 0 385.8 0C343 0 300 0 257.2 0C214.3 0 171.7 0 128.8 0C86 0 43 0 21.5 0L0 0Z" fill="#5e4ad6"></path><path d="M0 20L21.5 21C43 22 86 24 128.8 25C171.7 26 214.3 26 257.2 24.8C300 23.7 343 21.3 385.8 21C428.7 20.7 471.3 22.3 514.2 22C557 21.7 600 19.3 642.8 17.8C685.7 16.3 728.3 15.7 771.2 16.2C814 16.7 857 18.3 878.5 19.2L900 20L900 0L878.5 0C857 0 814 0 771.2 0C728.3 0 685.7 0 642.8 0C600 0 557 0 514.2 0C471.3 0 428.7 0 385.8 0C343 0 300 0 257.2 0C214.3 0 171.7 0 128.8 0C86 0 43 0 21.5 0L0 0Z" fill="#5644c3"></path><path d="M0 15L21.5 14.2C43 13.3 86 11.7 128.8 11.3C171.7 11 214.3 12 257.2 12C300 12 343 11 385.8 10.7C428.7 10.3 471.3 10.7 514.2 11C557 11.3 600 11.7 642.8 12.7C685.7 13.7 728.3 15.3 771.2 16.3C814 17.3 857 17.7 878.5 17.8L900 18L900 0L878.5 0C857 0 814 0 771.2 0C728.3 0 685.7 0 642.8 0C600 0 557 0 514.2 0C471.3 0 428.7 0 385.8 0C343 0 300 0 257.2 0C214.3 0 171.7 0 128.8 0C86 0 43 0 21.5 0L0 0Z" fill="#4e3db0"></path><path d="M0 9L21.5 9.2C43 9.3 86 9.7 128.8 9.2C171.7 8.7 214.3 7.3 257.2 6.8C300 6.3 343 6.7 385.8 7.2C428.7 7.7 471.3 8.3 514.2 8.3C557 8.3 600 7.7 642.8 6.7C685.7 5.7 728.3 4.3 771.2 4.8C814 5.3 857 7.7 878.5 8.8L900 10L900 0L878.5 0C857 0 814 0 771.2 0C728.3 0 685.7 0 642.8 0C600 0 557 0 514.2 0C471.3 0 428.7 0 385.8 0C343 0 300 0 257.2 0C214.3 0 171.7 0 128.8 0C86 0 43 0 21.5 0L0 0Z" fill="#46379e"></path></svg>