<svg id="visual" viewBox="0 0 900 100" width="900" height="100" xmlns="http://www.w3.org/2000/svg" xmlns:xlink="http://www.w3.org/1999/xlink" version="1.1"><rect x="0" y="0" width="900" height="100" fill="#fff"></rect><path d="M0 18L21.5 19.2C43 20.3 86 22.7 128.8 25.3C171.7 28 214.3 31 257.2 31.3C300 31.7 343 29.3 385.8 26.8C428.7 24.3 471.3 21.7 514.2 20.8C557 20 600 21 642.8 23.2C685.7 25.3 728.3 28.7 771.2 29.3C814 30 857 28 878.5 27L900 26L900 101L878.5 101C857 101 814 101 771.2 101C728.3 101 685.7 101 642.8 101C600 101 557 101 514.2 101C471.3 101 428.7 101 385.8 101C343 101 300 101 257.2 101C214.3 101 171.7 101 128.8 101C86 101 43 101 21.5 101L0 101Z" fill="#4745a5"></path><path d="M0 44L21.5 46.3C43 48.7 86 53.3 128.8 52.2C171.7 51 214.3 44 257.2 40C300 36 343 35 385.8 35.7C428.7 36.3 471.3 38.7 514.2 42.5C557 46.3 600 51.7 642.8 51.7C685.7 51.7 728.3 46.3 771.2 45C814 43.7 857 46.3 878.5 47.7L900 49L900 101L878.5 101C857 101 814 101 771.2 101C728.3 101 685.7 101 642.8 101C600 101 557 101 514.2 101C471.3 101 428.7 101 385.8 101C343 101 300 101 257.2 101C214.3 101 171.7 101 128.8 101C86 101 43 101 21.5 101L0 101Z" fill="#4c46b2"></path><path d="M0 54L21.5 55.2C43 56.3 86 58.7 128.8 60.5C171.7 62.3 214.3 63.7 257.2 63.5C300 63.3 343 61.7 385.8 62.3C428.7 63 471.3 66 514.2 67.7C557 69.3 600 69.7 642.8 69.5C685.7 69.3 728.3 68.7 771.2 68.2C814 67.7 857 67.3 878.5 67.2L900 67L900 101L878.5 101C857 101 814 101 771.2 101C728.3 101 685.7 101 642.8 101C600 101 557 101 514.2 101C471.3 101 428.7 101 385.8 101C343 101 300 101 257.2 101C214.3 101 171.7 101 128.8 101C86 101 43 101 21.5 101L0 101Z" fill="#5246bf"></path><path d="M0 79L21.5 80C43 81 86 83 128.8 83C171.7 83 214.3 81 257.2 81C300 81 343 83 385.8 83.3C428.7 83.7 471.3 82.3 514.2 80.2C557 78 600 75 642.8 73C685.7 71 728.3 70 771.2 70.3C814 70.7 857 72.3 878.5 73.2L900 74L900 101L878.5 101C857 101 814 101 771.2 101C728.3 101 685.7 101 642.8 101C600 101 557 101 514.2 101C471.3 101 428.7 101 385.8 101C343 101 300 101 257.2 101C214.3 101 171.7 101 128.8 101C86 101 43 101 21.5 101L0 101Z" fill="#5946cc"></path></svg>