<svg id="visual" viewBox="0 0 900 100" width="900" height="100" xmlns="http://www.w3.org/2000/svg" xmlns:xlink="http://www.w3.org/1999/xlink" version="1.1"><rect x="0" y="0" width="900" height="100" fill="#fff"></rect><path d="M0 69L21.5 64C43 59 86 49 128.8 45.3C171.7 41.7 214.3 44.3 257.2 46.5C300 48.7 343 50.3 385.8 55.3C428.7 60.3 471.3 68.7 514.2 67.3C557 66 600 55 642.8 53.2C685.7 51.3 728.3 58.7 771.2 63.5C814 68.3 857 70.7 878.5 71.8L900 73L900 0L878.5 0C857 0 814 0 771.2 0C728.3 0 685.7 0 642.8 0C600 0 557 0 514.2 0C471.3 0 428.7 0 385.8 0C343 0 300 0 257.2 0C214.3 0 171.7 0 128.8 0C86 0 43 0 21.5 0L0 0Z" fill="#ffcc00"></path><path d="M0 26L21.5 27.2C43 28.3 86 30.7 128.8 30.7C171.7 30.7 214.3 28.3 257.2 26.2C300 24 343 22 385.8 22.8C428.7 23.7 471.3 27.3 514.2 30.2C557 33 600 35 642.8 32.8C685.7 30.7 728.3 24.3 771.2 20.8C814 17.3 857 16.7 878.5 16.3L900 16L900 0L878.5 0C857 0 814 0 771.2 0C728.3 0 685.7 0 642.8 0C600 0 557 0 514.2 0C471.3 0 428.7 0 385.8 0C343 0 300 0 257.2 0C214.3 0 171.7 0 128.8 0C86 0 43 0 21.5 0L0 0Z" fill="#5946cc"></path></svg>