<svg id="visual" viewBox="0 0 900 450" width="900" height="450" xmlns="http://www.w3.org/2000/svg" xmlns:xlink="http://www.w3.org/1999/xlink" version="1.1"><path d="M0 199L13.7 182.5C27.3 166 54.7 133 82 120.3C109.3 107.7 136.7 115.3 163.8 119.8C191 124.3 218 125.7 245.2 119.7C272.3 113.7 299.7 100.3 327 101.8C354.3 103.3 381.7 119.7 409 130.2C436.3 140.7 463.7 145.3 491 138.7C518.3 132 545.7 114 573 111C600.3 108 627.7 120 654.8 115.5C682 111 709 90 736.2 96C763.3 102 790.7 135 818 141C845.3 147 872.7 126 886.3 115.5L900 105L900 0L886.3 0C872.7 0 845.3 0 818 0C790.7 0 763.3 0 736.2 0C709 0 682 0 654.8 0C627.7 0 600.3 0 573 0C545.7 0 518.3 0 491 0C463.7 0 436.3 0 409 0C381.7 0 354.3 0 327 0C299.7 0 272.3 0 245.2 0C218 0 191 0 163.8 0C136.7 0 109.3 0 82 0C54.7 0 27.3 0 13.7 0L0 0Z" fill="#5946cc"></path><path d="M0 258L13.7 245.2C27.3 232.3 54.7 206.7 82 193.2C109.3 179.7 136.7 178.3 163.8 190.3C191 202.3 218 227.7 245.2 225.3C272.3 223 299.7 193 327 190.8C354.3 188.7 381.7 214.3 409 219.7C436.3 225 463.7 210 491 198C518.3 186 545.7 177 573 179.2C600.3 181.3 627.7 194.7 654.8 196.2C682 197.7 709 187.3 736.2 200.8C763.3 214.3 790.7 251.7 818 259.8C845.3 268 872.7 247 886.3 236.5L900 226L900 103L886.3 113.5C872.7 124 845.3 145 818 139C790.7 133 763.3 100 736.2 94C709 88 682 109 654.8 113.5C627.7 118 600.3 106 573 109C545.7 112 518.3 130 491 136.7C463.7 143.3 436.3 138.7 409 128.2C381.7 117.7 354.3 101.3 327 99.8C299.7 98.3 272.3 111.7 245.2 117.7C218 123.7 191 122.3 163.8 117.8C136.7 113.3 109.3 105.7 82 118.3C54.7 131 27.3 164 13.7 180.5L0 197Z" fill="#4d46b4"></path><path d="M0 285L13.7 274.5C27.3 264 54.7 243 82 231.7C109.3 220.3 136.7 218.7 163.8 229.8C191 241 218 265 245.2 268.8C272.3 272.7 299.7 256.3 327 257.2C354.3 258 381.7 276 409 276.7C436.3 277.3 463.7 260.7 491 250.8C518.3 241 545.7 238 573 242.5C600.3 247 627.7 259 654.8 256.8C682 254.7 709 238.3 736.2 245.8C763.3 253.3 790.7 284.7 818 292.2C845.3 299.7 872.7 283.3 886.3 275.2L900 267L900 224L886.3 234.5C872.7 245 845.3 266 818 257.8C790.7 249.7 763.3 212.3 736.2 198.8C709 185.3 682 195.7 654.8 194.2C627.7 192.7 600.3 179.3 573 177.2C545.7 175 518.3 184 491 196C463.7 208 436.3 223 409 217.7C381.7 212.3 354.3 186.7 327 188.8C299.7 191 272.3 221 245.2 223.3C218 225.7 191 200.3 163.8 188.3C136.7 176.3 109.3 177.7 82 191.2C54.7 204.7 27.3 230.3 13.7 243.2L0 256Z" fill="#4745a5"></path><path d="M0 406L13.7 398.5C27.3 391 54.7 376 82 369.3C109.3 362.7 136.7 364.3 163.8 373.3C191 382.3 218 398.7 245.2 403.8C272.3 409 299.7 403 327 393.3C354.3 383.7 381.7 370.3 409 371.8C436.3 373.3 463.7 389.7 491 400.2C518.3 410.7 545.7 415.3 573 413.2C600.3 411 627.7 402 654.8 393.7C682 385.3 709 377.7 736.2 380.7C763.3 383.7 790.7 397.3 818 404.2C845.3 411 872.7 411 886.3 411L900 411L900 265L886.3 273.2C872.7 281.3 845.3 297.7 818 290.2C790.7 282.7 763.3 251.3 736.2 243.8C709 236.3 682 252.7 654.8 254.8C627.7 257 600.3 245 573 240.5C545.7 236 518.3 239 491 248.8C463.7 258.7 436.3 275.3 409 274.7C381.7 274 354.3 256 327 255.2C299.7 254.3 272.3 270.7 245.2 266.8C218 263 191 239 163.8 227.8C136.7 216.7 109.3 218.3 82 229.7C54.7 241 27.3 262 13.7 272.5L0 283Z" fill="#4d46b4"></path><path d="M0 451L13.7 451C27.3 451 54.7 451 82 451C109.3 451 136.7 451 163.8 451C191 451 218 451 245.2 451C272.3 451 299.7 451 327 451C354.3 451 381.7 451 409 451C436.3 451 463.7 451 491 451C518.3 451 545.7 451 573 451C600.3 451 627.7 451 654.8 451C682 451 709 451 736.2 451C763.3 451 790.7 451 818 451C845.3 451 872.7 451 886.3 451L900 451L900 409L886.3 409C872.7 409 845.3 409 818 402.2C790.7 395.3 763.3 381.7 736.2 378.7C709 375.7 682 383.3 654.8 391.7C627.7 400 600.3 409 573 411.2C545.7 413.3 518.3 408.7 491 398.2C463.7 387.7 436.3 371.3 409 369.8C381.7 368.3 354.3 381.7 327 391.3C299.7 401 272.3 407 245.2 401.8C218 396.7 191 380.3 163.8 371.3C136.7 362.3 109.3 360.7 82 367.3C54.7 374 27.3 389 13.7 396.5L0 404Z" fill="#5946cc"></path></svg>