<svg id="visual" viewBox="0 0 900 450" width="900" height="450" xmlns="http://www.w3.org/2000/svg" xmlns:xlink="http://www.w3.org/1999/xlink" version="1.1"><rect width="900" height="450" fill="#fff"></rect><g><g transform="translate(549 223)"><path d="M69.8 -39.9C83.5 -16.6 82.9 15.4 68.8 39.2C54.8 62.9 27.4 78.3 -0.3 78.5C-28 78.7 -56 63.6 -70 39.9C-83.9 16.2 -83.9 -16.1 -69.9 -39.6C-55.9 -63.1 -27.9 -77.8 0.1 -77.9C28.1 -77.9 56.1 -63.2 69.8 -39.9Z" fill="#5946c6"></path></g><g transform="translate(853 145)"><path d="M41.3 -23.5C49.1 -10.2 48.2 8.6 39.9 23.2C31.5 37.7 15.8 48.2 -0.3 48.4C-16.4 48.5 -32.8 38.4 -40.8 24C-48.9 9.6 -48.6 -9.1 -40.4 -22.7C-32.2 -36.2 -16.1 -44.5 0.3 -44.7C16.7 -44.8 33.4 -36.9 41.3 -23.5Z" fill="#5946c6"></path></g><g transform="translate(705 421)"><path d="M53.1 -32C63.7 -12.3 63.6 12.2 53 31.7C42.4 51.1 21.2 65.6 -0.8 66.1C-22.8 66.5 -45.6 53 -56.8 33.2C-67.9 13.4 -67.5 -12.7 -56.1 -32.8C-44.7 -52.9 -22.4 -67.1 -0.5 -66.8C21.3 -66.5 42.5 -51.6 53.1 -32Z" fill="#5946c6"></path></g><g transform="translate(273 365)"><path d="M37 -21.5C44.8 -7.8 45.8 9.6 38.5 21.9C31.2 34.3 15.6 41.6 0.8 41.2C-14.1 40.7 -28.2 32.6 -35.7 20.1C-43.1 7.6 -44 -9.1 -36.9 -22.3C-29.9 -35.5 -14.9 -45.1 -0.2 -45C14.6 -44.9 29.2 -35.1 37 -21.5Z" fill="#5946c6"></path></g><g transform="translate(98 100)"><path d="M41.3 -24C50.2 -8.4 51.9 11.3 43.8 26C35.7 40.7 17.9 50.6 0.6 50.2C-16.6 49.8 -33.2 39.3 -41.9 24.2C-50.7 9 -51.7 -10.7 -43.4 -26C-35.1 -41.3 -17.5 -52.2 -0.7 -51.8C16.2 -51.4 32.4 -39.7 41.3 -24Z" fill="#5946c6"></path></g><g transform="translate(567 9)"><path d="M68.9 -39.5C81.8 -17.4 79.7 13.6 65.6 36.6C51.6 59.5 25.8 74.4 -0.2 74.5C-26.2 74.6 -52.3 60 -65.6 37.4C-78.8 14.9 -79.1 -15.5 -66.1 -37.7C-53 -59.9 -26.5 -73.9 0.8 -74.4C28 -74.8 56 -61.7 68.9 -39.5Z" fill="#5946c6"></path></g><g transform="translate(9 411)"><path d="M66.7 -38.7C79.3 -16.8 77.2 13.3 63.7 35.3C50.1 57.4 25.1 71.4 0.1 71.4C-24.9 71.3 -49.9 57.3 -62.9 35.5C-75.8 13.8 -76.9 -15.6 -64.4 -37.4C-51.9 -59.2 -26 -73.4 0.6 -73.8C27.1 -74.1 54.2 -60.5 66.7 -38.7Z" fill="#5946c6"></path></g><g transform="translate(361 63)"><path d="M47.5 -28.1C57.5 -10 58.9 12.4 49.5 28.8C40.1 45.2 20.1 55.6 -0.3 55.8C-20.7 56 -41.5 46 -50.8 29.5C-60.2 13.1 -58.2 -9.6 -47.8 -27.9C-37.4 -46.2 -18.7 -59.9 0 -59.9C18.7 -59.9 37.4 -46.2 47.5 -28.1Z" fill="#5946c6"></path></g><g transform="translate(470 445)"><path d="M59.4 -34C71.6 -13.1 72.5 14.6 60.7 35C48.9 55.4 24.4 68.4 0.2 68.2C-23.9 68.1 -47.9 54.8 -60.4 34C-73 13.2 -74.1 -15.1 -62.1 -35.9C-50.2 -56.7 -25.1 -69.9 -0.8 -69.5C23.6 -69.1 47.2 -55 59.4 -34Z" fill="#5946c6"></path></g></g></svg>