<svg id="visual" viewBox="0 0 900 200" width="900" height="200" xmlns="http://www.w3.org/2000/svg" xmlns:xlink="http://www.w3.org/1999/xlink" version="1.1"><rect x="0" y="0" width="900" height="200" fill="#fff"></rect><path d="M0 115L21.5 118.7C43 122.3 86 129.7 128.8 130.7C171.7 131.7 214.3 126.3 257.2 126.5C300 126.7 343 132.3 385.8 129.5C428.7 126.7 471.3 115.3 514.2 110.7C557 106 600 108 642.8 108.8C685.7 109.7 728.3 109.3 771.2 111C814 112.7 857 116.3 878.5 118.2L900 120L900 0L878.5 0C857 0 814 0 771.2 0C728.3 0 685.7 0 642.8 0C600 0 557 0 514.2 0C471.3 0 428.7 0 385.8 0C343 0 300 0 257.2 0C214.3 0 171.7 0 128.8 0C86 0 43 0 21.5 0L0 0Z" fill="#8557ff"></path><path d="M0 101L21.5 105.3C43 109.7 86 118.3 128.8 116.7C171.7 115 214.3 103 257.2 95.8C300 88.7 343 86.3 385.8 90.2C428.7 94 471.3 104 514.2 107.5C557 111 600 108 642.8 110.3C685.7 112.7 728.3 120.3 771.2 118.2C814 116 857 104 878.5 98L900 92L900 0L878.5 0C857 0 814 0 771.2 0C728.3 0 685.7 0 642.8 0C600 0 557 0 514.2 0C471.3 0 428.7 0 385.8 0C343 0 300 0 257.2 0C214.3 0 171.7 0 128.8 0C86 0 43 0 21.5 0L0 0Z" fill="#7953f2"></path><path d="M0 62L21.5 64C43 66 86 70 128.8 76.3C171.7 82.7 214.3 91.3 257.2 93.2C300 95 343 90 385.8 84C428.7 78 471.3 71 514.2 72C557 73 600 82 642.8 83.3C685.7 84.7 728.3 78.3 771.2 76.5C814 74.7 857 77.3 878.5 78.7L900 80L900 0L878.5 0C857 0 814 0 771.2 0C728.3 0 685.7 0 642.8 0C600 0 557 0 514.2 0C471.3 0 428.7 0 385.8 0C343 0 300 0 257.2 0C214.3 0 171.7 0 128.8 0C86 0 43 0 21.5 0L0 0Z" fill="#6e4fe5"></path><path d="M0 56L21.5 58.3C43 60.7 86 65.3 128.8 64.3C171.7 63.3 214.3 56.7 257.2 53.2C300 49.7 343 49.3 385.8 49C428.7 48.7 471.3 48.3 514.2 52.7C557 57 600 66 642.8 70.7C685.7 75.3 728.3 75.7 771.2 72.5C814 69.3 857 62.7 878.5 59.3L900 56L900 0L878.5 0C857 0 814 0 771.2 0C728.3 0 685.7 0 642.8 0C600 0 557 0 514.2 0C471.3 0 428.7 0 385.8 0C343 0 300 0 257.2 0C214.3 0 171.7 0 128.8 0C86 0 43 0 21.5 0L0 0Z" fill="#634bd8"></path><path d="M0 39L21.5 37.7C43 36.3 86 33.7 128.8 33C171.7 32.3 214.3 33.7 257.2 33.2C300 32.7 343 30.3 385.8 31.3C428.7 32.3 471.3 36.7 514.2 36.2C557 35.7 600 30.3 642.8 26.8C685.7 23.3 728.3 21.7 771.2 20.2C814 18.7 857 17.3 878.5 16.7L900 16L900 0L878.5 0C857 0 814 0 771.2 0C728.3 0 685.7 0 642.8 0C600 0 557 0 514.2 0C471.3 0 428.7 0 385.8 0C343 0 300 0 257.2 0C214.3 0 171.7 0 128.8 0C86 0 43 0 21.5 0L0 0Z" fill="#5946cc"></path></svg>