<svg id="visual" viewBox="0 0 900 100" width="900" height="100" xmlns="http://www.w3.org/2000/svg" xmlns:xlink="http://www.w3.org/1999/xlink" version="1.1"><rect x="0" y="0" width="900" height="100" fill="#fff"></rect><path d="M0 39L16.7 39.5C33.3 40 66.7 41 100 44.5C133.3 48 166.7 54 200 56.3C233.3 58.7 266.7 57.3 300 54C333.3 50.7 366.7 45.3 400 45.7C433.3 46 466.7 52 500 53C533.3 54 566.7 50 600 49.5C633.3 49 666.7 52 700 53.3C733.3 54.7 766.7 54.3 800 53.5C833.3 52.7 866.7 51.3 883.3 50.7L900 50L900 101L883.3 101C866.7 101 833.3 101 800 101C766.7 101 733.3 101 700 101C666.7 101 633.3 101 600 101C566.7 101 533.3 101 500 101C466.7 101 433.3 101 400 101C366.7 101 333.3 101 300 101C266.7 101 233.3 101 200 101C166.7 101 133.3 101 100 101C66.7 101 33.3 101 16.7 101L0 101Z" fill="#8557ff"></path><path d="M0 63L16.7 61C33.3 59 66.7 55 100 55.2C133.3 55.3 166.7 59.7 200 62.7C233.3 65.7 266.7 67.3 300 68.2C333.3 69 366.7 69 400 68.5C433.3 68 466.7 67 500 67.7C533.3 68.3 566.7 70.7 600 71.7C633.3 72.7 666.7 72.3 700 70.2C733.3 68 766.7 64 800 63.7C833.3 63.3 866.7 66.7 883.3 68.3L900 70L900 101L883.3 101C866.7 101 833.3 101 800 101C766.7 101 733.3 101 700 101C666.7 101 633.3 101 600 101C566.7 101 533.3 101 500 101C466.7 101 433.3 101 400 101C366.7 101 333.3 101 300 101C266.7 101 233.3 101 200 101C166.7 101 133.3 101 100 101C66.7 101 33.3 101 16.7 101L0 101Z" fill="#7552ee"></path><path d="M0 80L16.7 79.7C33.3 79.3 66.7 78.7 100 77.7C133.3 76.7 166.7 75.3 200 74.3C233.3 73.3 266.7 72.7 300 71C333.3 69.3 366.7 66.7 400 66.7C433.3 66.7 466.7 69.3 500 69.3C533.3 69.3 566.7 66.7 600 67C633.3 67.3 666.7 70.7 700 73.2C733.3 75.7 766.7 77.3 800 78.5C833.3 79.7 866.7 80.3 883.3 80.7L900 81L900 101L883.3 101C866.7 101 833.3 101 800 101C766.7 101 733.3 101 700 101C666.7 101 633.3 101 600 101C566.7 101 533.3 101 500 101C466.7 101 433.3 101 400 101C366.7 101 333.3 101 300 101C266.7 101 233.3 101 200 101C166.7 101 133.3 101 100 101C66.7 101 33.3 101 16.7 101L0 101Z" fill="#674cdd"></path><path d="M0 83L16.7 81.8C33.3 80.7 66.7 78.3 100 77.7C133.3 77 166.7 78 200 78C233.3 78 266.7 77 300 78.8C333.3 80.7 366.7 85.3 400 87.7C433.3 90 466.7 90 500 89.7C533.3 89.3 566.7 88.7 600 88.5C633.3 88.3 666.7 88.7 700 88.3C733.3 88 766.7 87 800 87.2C833.3 87.3 866.7 88.7 883.3 89.3L900 90L900 101L883.3 101C866.7 101 833.3 101 800 101C766.7 101 733.3 101 700 101C666.7 101 633.3 101 600 101C566.7 101 533.3 101 500 101C466.7 101 433.3 101 400 101C366.7 101 333.3 101 300 101C266.7 101 233.3 101 200 101C166.7 101 133.3 101 100 101C66.7 101 33.3 101 16.7 101L0 101Z" fill="#5946cc"></path></svg>