<svg id="visual" viewBox="0 0 900 100" width="900" height="100" xmlns="http://www.w3.org/2000/svg" xmlns:xlink="http://www.w3.org/1999/xlink" version="1.1"><rect x="0" y="0" width="900" height="100" fill="#fff"></rect><path d="M0 53L16.7 54.3C33.3 55.7 66.7 58.3 100 57.8C133.3 57.3 166.7 53.7 200 51.5C233.3 49.3 266.7 48.7 300 50.5C333.3 52.3 366.7 56.7 400 58.5C433.3 60.3 466.7 59.7 500 56C533.3 52.3 566.7 45.7 600 46.2C633.3 46.7 666.7 54.3 700 57.8C733.3 61.3 766.7 60.7 800 60.7C833.3 60.7 866.7 61.3 883.3 61.7L900 62L900 0L883.3 0C866.7 0 833.3 0 800 0C766.7 0 733.3 0 700 0C666.7 0 633.3 0 600 0C566.7 0 533.3 0 500 0C466.7 0 433.3 0 400 0C366.7 0 333.3 0 300 0C266.7 0 233.3 0 200 0C166.7 0 133.3 0 100 0C66.7 0 33.3 0 16.7 0L0 0Z" fill="#8557ff"></path><path d="M0 36L16.7 35.5C33.3 35 66.7 34 100 34.5C133.3 35 166.7 37 200 39.2C233.3 41.3 266.7 43.7 300 42.3C333.3 41 366.7 36 400 33.7C433.3 31.3 466.7 31.7 500 31.2C533.3 30.7 566.7 29.3 600 30.7C633.3 32 666.7 36 700 36.8C733.3 37.7 766.7 35.3 800 35.8C833.3 36.3 866.7 39.7 883.3 41.3L900 43L900 0L883.3 0C866.7 0 833.3 0 800 0C766.7 0 733.3 0 700 0C666.7 0 633.3 0 600 0C566.7 0 533.3 0 500 0C466.7 0 433.3 0 400 0C366.7 0 333.3 0 300 0C266.7 0 233.3 0 200 0C166.7 0 133.3 0 100 0C66.7 0 33.3 0 16.7 0L0 0Z" fill="#7552ee"></path><path d="M0 21L16.7 21.2C33.3 21.3 66.7 21.7 100 21.5C133.3 21.3 166.7 20.7 200 22.2C233.3 23.7 266.7 27.3 300 27C333.3 26.7 366.7 22.3 400 22.8C433.3 23.3 466.7 28.7 500 30.2C533.3 31.7 566.7 29.3 600 29.7C633.3 30 666.7 33 700 34C733.3 35 766.7 34 800 32.3C833.3 30.7 866.7 28.3 883.3 27.2L900 26L900 0L883.3 0C866.7 0 833.3 0 800 0C766.7 0 733.3 0 700 0C666.7 0 633.3 0 600 0C566.7 0 533.3 0 500 0C466.7 0 433.3 0 400 0C366.7 0 333.3 0 300 0C266.7 0 233.3 0 200 0C166.7 0 133.3 0 100 0C66.7 0 33.3 0 16.7 0L0 0Z" fill="#674cdd"></path><path d="M0 17L16.7 18C33.3 19 66.7 21 100 20.8C133.3 20.7 166.7 18.3 200 16.8C233.3 15.3 266.7 14.7 300 14.5C333.3 14.3 366.7 14.7 400 15.3C433.3 16 466.7 17 500 16.3C533.3 15.7 566.7 13.3 600 11.5C633.3 9.7 666.7 8.3 700 10.2C733.3 12 766.7 17 800 19.3C833.3 21.7 866.7 21.3 883.3 21.2L900 21L900 0L883.3 0C866.7 0 833.3 0 800 0C766.7 0 733.3 0 700 0C666.7 0 633.3 0 600 0C566.7 0 533.3 0 500 0C466.7 0 433.3 0 400 0C366.7 0 333.3 0 300 0C266.7 0 233.3 0 200 0C166.7 0 133.3 0 100 0C66.7 0 33.3 0 16.7 0L0 0Z" fill="#5946cc"></path></svg>