<svg id="visual" viewBox="0 0 900 450" width="900" height="450" xmlns="http://www.w3.org/2000/svg" xmlns:xlink="http://www.w3.org/1999/xlink" version="1.1"><rect x="0" y="0" width="900" height="450" fill="#fff"></rect><path d="M0 182L21.5 174.3C43 166.7 86 151.3 128.8 141.3C171.7 131.3 214.3 126.7 257.2 126.7C300 126.7 343 131.3 385.8 135C428.7 138.7 471.3 141.3 514.2 148.3C557 155.3 600 166.7 642.8 166C685.7 165.3 728.3 152.7 771.2 145C814 137.3 857 134.7 878.5 133.3L900 132L900 0L878.5 0C857 0 814 0 771.2 0C728.3 0 685.7 0 642.8 0C600 0 557 0 514.2 0C471.3 0 428.7 0 385.8 0C343 0 300 0 257.2 0C214.3 0 171.7 0 128.8 0C86 0 43 0 21.5 0L0 0Z" fill="#8557ff"></path><path d="M0 123L21.5 125C43 127 86 131 128.8 130.2C171.7 129.3 214.3 123.7 257.2 123.7C300 123.7 343 129.3 385.8 129.8C428.7 130.3 471.3 125.7 514.2 124.8C557 124 600 127 642.8 128.2C685.7 129.3 728.3 128.7 771.2 122.5C814 116.3 857 104.7 878.5 98.8L900 93L900 0L878.5 0C857 0 814 0 771.2 0C728.3 0 685.7 0 642.8 0C600 0 557 0 514.2 0C471.3 0 428.7 0 385.8 0C343 0 300 0 257.2 0C214.3 0 171.7 0 128.8 0C86 0 43 0 21.5 0L0 0Z" fill="#7953f2"></path><path d="M0 102L21.5 97.3C43 92.7 86 83.3 128.8 84.2C171.7 85 214.3 96 257.2 100.8C300 105.7 343 104.3 385.8 105.7C428.7 107 471.3 111 514.2 112.7C557 114.3 600 113.7 642.8 107.2C685.7 100.7 728.3 88.3 771.2 88.2C814 88 857 100 878.5 106L900 112L900 0L878.5 0C857 0 814 0 771.2 0C728.3 0 685.7 0 642.8 0C600 0 557 0 514.2 0C471.3 0 428.7 0 385.8 0C343 0 300 0 257.2 0C214.3 0 171.7 0 128.8 0C86 0 43 0 21.5 0L0 0Z" fill="#6e4fe5"></path><path d="M0 65L21.5 68C43 71 86 77 128.8 78.7C171.7 80.3 214.3 77.7 257.2 77.3C300 77 343 79 385.8 75.5C428.7 72 471.3 63 514.2 62.2C557 61.3 600 68.7 642.8 70.5C685.7 72.3 728.3 68.7 771.2 63.2C814 57.7 857 50.3 878.5 46.7L900 43L900 0L878.5 0C857 0 814 0 771.2 0C728.3 0 685.7 0 642.8 0C600 0 557 0 514.2 0C471.3 0 428.7 0 385.8 0C343 0 300 0 257.2 0C214.3 0 171.7 0 128.8 0C86 0 43 0 21.5 0L0 0Z" fill="#634bd8"></path><path d="M0 33L21.5 33.7C43 34.3 86 35.7 128.8 33.2C171.7 30.7 214.3 24.3 257.2 26.7C300 29 343 40 385.8 42.3C428.7 44.7 471.3 38.3 514.2 37.8C557 37.3 600 42.7 642.8 42.2C685.7 41.7 728.3 35.3 771.2 36C814 36.7 857 44.3 878.5 48.2L900 52L900 0L878.5 0C857 0 814 0 771.2 0C728.3 0 685.7 0 642.8 0C600 0 557 0 514.2 0C471.3 0 428.7 0 385.8 0C343 0 300 0 257.2 0C214.3 0 171.7 0 128.8 0C86 0 43 0 21.5 0L0 0Z" fill="#5946cc"></path></svg>