<svg id="visual" viewBox="0 0 900 300" width="900" height="300" xmlns="http://www.w3.org/2000/svg" xmlns:xlink="http://www.w3.org/1999/xlink" version="1.1"><rect x="0" y="0" width="900" height="300" fill="#fff"></rect><path d="M0 123L16.7 132.5C33.3 142 66.7 161 100 165.8C133.3 170.7 166.7 161.3 200 159.7C233.3 158 266.7 164 300 170.5C333.3 177 366.7 184 400 179.2C433.3 174.3 466.7 157.7 500 149.8C533.3 142 566.7 143 600 141.8C633.3 140.7 666.7 137.3 700 140.5C733.3 143.7 766.7 153.3 800 150C833.3 146.7 866.7 130.3 883.3 122.2L900 114L900 0L883.3 0C866.7 0 833.3 0 800 0C766.7 0 733.3 0 700 0C666.7 0 633.3 0 600 0C566.7 0 533.3 0 500 0C466.7 0 433.3 0 400 0C366.7 0 333.3 0 300 0C266.7 0 233.3 0 200 0C166.7 0 133.3 0 100 0C66.7 0 33.3 0 16.7 0L0 0Z" fill="#8557ff"></path><path d="M0 87L16.7 86.7C33.3 86.3 66.7 85.7 100 89.2C133.3 92.7 166.7 100.3 200 104.8C233.3 109.3 266.7 110.7 300 117.2C333.3 123.7 366.7 135.3 400 139.3C433.3 143.3 466.7 139.7 500 133.2C533.3 126.7 566.7 117.3 600 109.5C633.3 101.7 666.7 95.3 700 94C733.3 92.7 766.7 96.3 800 94.3C833.3 92.3 866.7 84.7 883.3 80.8L900 77L900 0L883.3 0C866.7 0 833.3 0 800 0C766.7 0 733.3 0 700 0C666.7 0 633.3 0 600 0C566.7 0 533.3 0 500 0C466.7 0 433.3 0 400 0C366.7 0 333.3 0 300 0C266.7 0 233.3 0 200 0C166.7 0 133.3 0 100 0C66.7 0 33.3 0 16.7 0L0 0Z" fill="#7552ee"></path><path d="M0 99L16.7 95.5C33.3 92 66.7 85 100 78.5C133.3 72 166.7 66 200 65.2C233.3 64.3 266.7 68.7 300 73.5C333.3 78.3 366.7 83.7 400 87.8C433.3 92 466.7 95 500 91.3C533.3 87.7 566.7 77.3 600 79C633.3 80.7 666.7 94.3 700 94C733.3 93.7 766.7 79.3 800 76C833.3 72.7 866.7 80.3 883.3 84.2L900 88L900 0L883.3 0C866.7 0 833.3 0 800 0C766.7 0 733.3 0 700 0C666.7 0 633.3 0 600 0C566.7 0 533.3 0 500 0C466.7 0 433.3 0 400 0C366.7 0 333.3 0 300 0C266.7 0 233.3 0 200 0C166.7 0 133.3 0 100 0C66.7 0 33.3 0 16.7 0L0 0Z" fill="#674cdd"></path><path d="M0 40L16.7 37.5C33.3 35 66.7 30 100 33.7C133.3 37.3 166.7 49.7 200 53.2C233.3 56.7 266.7 51.3 300 46.8C333.3 42.3 366.7 38.7 400 36.3C433.3 34 466.7 33 500 38.3C533.3 43.7 566.7 55.3 600 54.5C633.3 53.7 666.7 40.3 700 41C733.3 41.7 766.7 56.3 800 60.8C833.3 65.3 866.7 59.7 883.3 56.8L900 54L900 0L883.3 0C866.7 0 833.3 0 800 0C766.7 0 733.3 0 700 0C666.7 0 633.3 0 600 0C566.7 0 533.3 0 500 0C466.7 0 433.3 0 400 0C366.7 0 333.3 0 300 0C266.7 0 233.3 0 200 0C166.7 0 133.3 0 100 0C66.7 0 33.3 0 16.7 0L0 0Z" fill="#5946cc"></path></svg>