<svg id="visual" viewBox="0 0 900 100" width="900" height="100" xmlns="http://www.w3.org/2000/svg" xmlns:xlink="http://www.w3.org/1999/xlink" version="1.1"><rect x="0" y="0" width="900" height="100" fill="#efeefe"></rect><path d="M0 46L21.5 50.7C43 55.3 86 64.7 128.8 64.7C171.7 64.7 214.3 55.3 257.2 55.5C300 55.7 343 65.3 385.8 70.3C428.7 75.3 471.3 75.7 514.2 71.8C557 68 600 60 642.8 60C685.7 60 728.3 68 771.2 67.2C814 66.3 857 56.7 878.5 51.8L900 47L900 0L878.5 0C857 0 814 0 771.2 0C728.3 0 685.7 0 642.8 0C600 0 557 0 514.2 0C471.3 0 428.7 0 385.8 0C343 0 300 0 257.2 0C214.3 0 171.7 0 128.8 0C86 0 43 0 21.5 0L0 0Z" fill="#6751ea"></path><path d="M0 35L21.5 34C43 33 86 31 128.8 30C171.7 29 214.3 29 257.2 29.7C300 30.3 343 31.7 385.8 33.5C428.7 35.3 471.3 37.7 514.2 37.8C557 38 600 36 642.8 38C685.7 40 728.3 46 771.2 48C814 50 857 48 878.5 47L900 46L900 0L878.5 0C857 0 814 0 771.2 0C728.3 0 685.7 0 642.8 0C600 0 557 0 514.2 0C471.3 0 428.7 0 385.8 0C343 0 300 0 257.2 0C214.3 0 171.7 0 128.8 0C86 0 43 0 21.5 0L0 0Z" fill="#5644c3"></path><path d="M0 31L21.5 30.5C43 30 86 29 128.8 29.2C171.7 29.3 214.3 30.7 257.2 31.8C300 33 343 34 385.8 31C428.7 28 471.3 21 514.2 18.3C557 15.7 600 17.3 642.8 20.5C685.7 23.7 728.3 28.3 771.2 30.5C814 32.7 857 32.3 878.5 32.2L900 32L900 0L878.5 0C857 0 814 0 771.2 0C728.3 0 685.7 0 642.8 0C600 0 557 0 514.2 0C471.3 0 428.7 0 385.8 0C343 0 300 0 257.2 0C214.3 0 171.7 0 128.8 0C86 0 43 0 21.5 0L0 0Z" fill="#46379e"></path></svg>