<svg id="visual" viewBox="0 0 900 450" width="900" height="450" xmlns="http://www.w3.org/2000/svg" xmlns:xlink="http://www.w3.org/1999/xlink" version="1.1"><path d="M0 123L16.7 118.5C33.3 114 66.7 105 100 102C133.3 99 166.7 102 200 106.5C233.3 111 266.7 117 300 111C333.3 105 366.7 87 400 84C433.3 81 466.7 93 500 97.5C533.3 102 566.7 99 600 96C633.3 93 666.7 90 700 87C733.3 84 766.7 81 800 80.2C833.3 79.3 866.7 80.7 883.3 81.3L900 82L900 0L883.3 0C866.7 0 833.3 0 800 0C766.7 0 733.3 0 700 0C666.7 0 633.3 0 600 0C566.7 0 533.3 0 500 0C466.7 0 433.3 0 400 0C366.7 0 333.3 0 300 0C266.7 0 233.3 0 200 0C166.7 0 133.3 0 100 0C66.7 0 33.3 0 16.7 0L0 0Z" fill="#46379e"></path><path d="M0 141L16.7 136.5C33.3 132 66.7 123 100 123.7C133.3 124.3 166.7 134.7 200 140.7C233.3 146.7 266.7 148.3 300 141.7C333.3 135 366.7 120 400 118.5C433.3 117 466.7 129 500 131.2C533.3 133.3 566.7 125.7 600 121.8C633.3 118 666.7 118 700 115C733.3 112 766.7 106 800 103C833.3 100 866.7 100 883.3 100L900 100L900 80L883.3 79.3C866.7 78.7 833.3 77.3 800 78.2C766.7 79 733.3 82 700 85C666.7 88 633.3 91 600 94C566.7 97 533.3 100 500 95.5C466.7 91 433.3 79 400 82C366.7 85 333.3 103 300 109C266.7 115 233.3 109 200 104.5C166.7 100 133.3 97 100 100C66.7 103 33.3 112 16.7 116.5L0 121Z" fill="#5140b8"></path><path d="M0 172L16.7 170.5C33.3 169 66.7 166 100 166C133.3 166 166.7 169 200 172.8C233.3 176.7 266.7 181.3 300 180.7C333.3 180 366.7 174 400 177C433.3 180 466.7 192 500 194.2C533.3 196.3 566.7 188.7 600 181.2C633.3 173.7 666.7 166.3 700 158.8C733.3 151.3 766.7 143.7 800 139.8C833.3 136 866.7 136 883.3 136L900 136L900 98L883.3 98C866.7 98 833.3 98 800 101C766.7 104 733.3 110 700 113C666.7 116 633.3 116 600 119.8C566.7 123.7 533.3 131.3 500 129.2C466.7 127 433.3 115 400 116.5C366.7 118 333.3 133 300 139.7C266.7 146.3 233.3 144.7 200 138.7C166.7 132.7 133.3 122.3 100 121.7C66.7 121 33.3 130 16.7 134.5L0 139Z" fill="#5d4ad4"></path><path d="M0 190L16.7 189.3C33.3 188.7 66.7 187.3 100 188.8C133.3 190.3 166.7 194.7 200 197.7C233.3 200.7 266.7 202.3 300 200.8C333.3 199.3 366.7 194.7 400 197.7C433.3 200.7 466.7 211.3 500 215.8C533.3 220.3 566.7 218.7 600 214.8C633.3 211 666.7 205 700 195.3C733.3 185.7 766.7 172.3 800 167.8C833.3 163.3 866.7 167.7 883.3 169.8L900 172L900 134L883.3 134C866.7 134 833.3 134 800 137.8C766.7 141.7 733.3 149.3 700 156.8C666.7 164.3 633.3 171.7 600 179.2C566.7 186.7 533.3 194.3 500 192.2C466.7 190 433.3 178 400 175C366.7 172 333.3 178 300 178.7C266.7 179.3 233.3 174.7 200 170.8C166.7 167 133.3 164 100 164C66.7 164 33.3 167 16.7 168.5L0 170Z" fill="#6751ea"></path><path d="M0 235L16.7 231.3C33.3 227.7 66.7 220.3 100 220.3C133.3 220.3 166.7 227.7 200 233.7C233.3 239.7 266.7 244.3 300 242.2C333.3 240 366.7 231 400 231C433.3 231 466.7 240 500 245.2C533.3 250.3 566.7 251.7 600 248.7C633.3 245.7 666.7 238.3 700 227.8C733.3 217.3 766.7 203.7 800 199.2C833.3 194.7 866.7 199.3 883.3 201.7L900 204L900 170L883.3 167.8C866.7 165.7 833.3 161.3 800 165.8C766.7 170.3 733.3 183.7 700 193.3C666.7 203 633.3 209 600 212.8C566.7 216.7 533.3 218.3 500 213.8C466.7 209.3 433.3 198.7 400 195.7C366.7 192.7 333.3 197.3 300 198.8C266.7 200.3 233.3 198.7 200 195.7C166.7 192.7 133.3 188.3 100 186.8C66.7 185.3 33.3 186.7 16.7 187.3L0 188Z" fill="#6751ea"></path><path d="M0 375L16.7 372C33.3 369 66.7 363 100 354.7C133.3 346.3 166.7 335.7 200 328.2C233.3 320.7 266.7 316.3 300 317.2C333.3 318 366.7 324 400 326.2C433.3 328.3 466.7 326.7 500 328.2C533.3 329.7 566.7 334.3 600 338.2C633.3 342 666.7 345 700 341.2C733.3 337.3 766.7 326.7 800 327.3C833.3 328 866.7 340 883.3 346L900 352L900 202L883.3 199.7C866.7 197.3 833.3 192.7 800 197.2C766.7 201.7 733.3 215.3 700 225.8C666.7 236.3 633.3 243.7 600 246.7C566.7 249.7 533.3 248.3 500 243.2C466.7 238 433.3 229 400 229C366.7 229 333.3 238 300 240.2C266.7 242.3 233.3 237.7 200 231.7C166.7 225.7 133.3 218.3 100 218.3C66.7 218.3 33.3 225.7 16.7 229.3L0 233Z" fill="#5d4ad4"></path><path d="M0 397L16.7 396.3C33.3 395.7 66.7 394.3 100 387.7C133.3 381 166.7 369 200 363.7C233.3 358.3 266.7 359.7 300 361.8C333.3 364 366.7 367 400 368.5C433.3 370 466.7 370 500 368.5C533.3 367 566.7 364 600 365.5C633.3 367 666.7 373 700 371.5C733.3 370 766.7 361 800 364.8C833.3 368.7 866.7 385.3 883.3 393.7L900 402L900 350L883.3 344C866.7 338 833.3 326 800 325.3C766.7 324.7 733.3 335.3 700 339.2C666.7 343 633.3 340 600 336.2C566.7 332.3 533.3 327.7 500 326.2C466.7 324.7 433.3 326.3 400 324.2C366.7 322 333.3 316 300 315.2C266.7 314.3 233.3 318.7 200 326.2C166.7 333.7 133.3 344.3 100 352.7C66.7 361 33.3 367 16.7 370L0 373Z" fill="#5140b8"></path><path d="M0 451L16.7 451C33.3 451 66.7 451 100 451C133.3 451 166.7 451 200 451C233.3 451 266.7 451 300 451C333.3 451 366.7 451 400 451C433.3 451 466.7 451 500 451C533.3 451 566.7 451 600 451C633.3 451 666.7 451 700 451C733.3 451 766.7 451 800 451C833.3 451 866.7 451 883.3 451L900 451L900 400L883.3 391.7C866.7 383.3 833.3 366.7 800 362.8C766.7 359 733.3 368 700 369.5C666.7 371 633.3 365 600 363.5C566.7 362 533.3 365 500 366.5C466.7 368 433.3 368 400 366.5C366.7 365 333.3 362 300 359.8C266.7 357.7 233.3 356.3 200 361.7C166.7 367 133.3 379 100 385.7C66.7 392.3 33.3 393.7 16.7 394.3L0 395Z" fill="#46379e"></path></svg>