<svg id="visual" viewBox="0 0 900 600" width="900" height="600" xmlns="http://www.w3.org/2000/svg" xmlns:xlink="http://www.w3.org/1999/xlink" version="1.1"><rect x="0" y="0" width="900" height="600" fill="#fdd16e"></rect><path d="M0 363L21.5 377.2C43 391.3 86 419.7 128.8 420.7C171.7 421.7 214.3 395.3 257.2 382C300 368.7 343 368.3 385.8 368.3C428.7 368.3 471.3 368.7 514.2 375.7C557 382.7 600 396.3 642.8 400.3C685.7 404.3 728.3 398.7 771.2 396C814 393.3 857 393.7 878.5 393.8L900 394L900 601L878.5 601C857 601 814 601 771.2 601C728.3 601 685.7 601 642.8 601C600 601 557 601 514.2 601C471.3 601 428.7 601 385.8 601C343 601 300 601 257.2 601C214.3 601 171.7 601 128.8 601C86 601 43 601 21.5 601L0 601Z" fill="#ff8b61"></path><path d="M0 453L21.5 453.8C43 454.7 86 456.3 128.8 458C171.7 459.7 214.3 461.3 257.2 455.5C300 449.7 343 436.3 385.8 429.3C428.7 422.3 471.3 421.7 514.2 417C557 412.3 600 403.7 642.8 402.5C685.7 401.3 728.3 407.7 771.2 412.3C814 417 857 420 878.5 421.5L900 423L900 601L878.5 601C857 601 814 601 771.2 601C728.3 601 685.7 601 642.8 601C600 601 557 601 514.2 601C471.3 601 428.7 601 385.8 601C343 601 300 601 257.2 601C214.3 601 171.7 601 128.8 601C86 601 43 601 21.5 601L0 601Z" fill="#ff9a5d"></path><path d="M0 506L21.5 497C43 488 86 470 128.8 462C171.7 454 214.3 456 257.2 462.5C300 469 343 480 385.8 476.7C428.7 473.3 471.3 455.7 514.2 449.5C557 443.3 600 448.7 642.8 448.8C685.7 449 728.3 444 771.2 451.7C814 459.3 857 479.7 878.5 489.8L900 500L900 601L878.5 601C857 601 814 601 771.2 601C728.3 601 685.7 601 642.8 601C600 601 557 601 514.2 601C471.3 601 428.7 601 385.8 601C343 601 300 601 257.2 601C214.3 601 171.7 601 128.8 601C86 601 43 601 21.5 601L0 601Z" fill="#ffaa5c"></path><path d="M0 527L21.5 528C43 529 86 531 128.8 530.7C171.7 530.3 214.3 527.7 257.2 526.7C300 525.7 343 526.3 385.8 527.8C428.7 529.3 471.3 531.7 514.2 529.3C557 527 600 520 642.8 511.2C685.7 502.3 728.3 491.7 771.2 496.5C814 501.3 857 521.7 878.5 531.8L900 542L900 601L878.5 601C857 601 814 601 771.2 601C728.3 601 685.7 601 642.8 601C600 601 557 601 514.2 601C471.3 601 428.7 601 385.8 601C343 601 300 601 257.2 601C214.3 601 171.7 601 128.8 601C86 601 43 601 21.5 601L0 601Z" fill="#ffba5d"></path><path d="M0 563L21.5 560C43 557 86 551 128.8 546.7C171.7 542.3 214.3 539.7 257.2 539.5C300 539.3 343 541.7 385.8 539.5C428.7 537.3 471.3 530.7 514.2 532.3C557 534 600 544 642.8 548.3C685.7 552.7 728.3 551.3 771.2 552.7C814 554 857 558 878.5 560L900 562L900 601L878.5 601C857 601 814 601 771.2 601C728.3 601 685.7 601 642.8 601C600 601 557 601 514.2 601C471.3 601 428.7 601 385.8 601C343 601 300 601 257.2 601C214.3 601 171.7 601 128.8 601C86 601 43 601 21.5 601L0 601Z" fill="#ffca61"></path></svg>