<svg id="visual" viewBox="0 0 900 450" width="900" height="450" xmlns="http://www.w3.org/2000/svg" xmlns:xlink="http://www.w3.org/1999/xlink" version="1.1"><path d="M0 87L13.7 87.7C27.3 88.3 54.7 89.7 82 81.3C109.3 73 136.7 55 163.8 55C191 55 218 73 245.2 79.8C272.3 86.7 299.7 82.3 327 73.3C354.3 64.3 381.7 50.7 409 53.7C436.3 56.7 463.7 76.3 491 84.7C518.3 93 545.7 90 573 88.5C600.3 87 627.7 87 654.8 85.5C682 84 709 81 736.2 74.2C763.3 67.3 790.7 56.7 818 55.2C845.3 53.7 872.7 61.3 886.3 65.2L900 69L900 0L886.3 0C872.7 0 845.3 0 818 0C790.7 0 763.3 0 736.2 0C709 0 682 0 654.8 0C627.7 0 600.3 0 573 0C545.7 0 518.3 0 491 0C463.7 0 436.3 0 409 0C381.7 0 354.3 0 327 0C299.7 0 272.3 0 245.2 0C218 0 191 0 163.8 0C136.7 0 109.3 0 82 0C54.7 0 27.3 0 13.7 0L0 0Z" fill="#4745a5"></path><path d="M0 177L13.7 172.5C27.3 168 54.7 159 82 144C109.3 129 136.7 108 163.8 107.2C191 106.3 218 125.7 245.2 137.7C272.3 149.7 299.7 154.3 327 143.8C354.3 133.3 381.7 107.7 409 109.8C436.3 112 463.7 142 491 156.3C518.3 170.7 545.7 169.3 573 168.7C600.3 168 627.7 168 654.8 163.5C682 159 709 150 736.2 150C763.3 150 790.7 159 818 162.7C845.3 166.3 872.7 164.7 886.3 163.8L900 163L900 67L886.3 63.2C872.7 59.3 845.3 51.7 818 53.2C790.7 54.7 763.3 65.3 736.2 72.2C709 79 682 82 654.8 83.5C627.7 85 600.3 85 573 86.5C545.7 88 518.3 91 491 82.7C463.7 74.3 436.3 54.7 409 51.7C381.7 48.7 354.3 62.3 327 71.3C299.7 80.3 272.3 84.7 245.2 77.8C218 71 191 53 163.8 53C136.7 53 109.3 71 82 79.3C54.7 87.7 27.3 86.3 13.7 85.7L0 85Z" fill="#524fbd"></path><path d="M0 330L13.7 319.5C27.3 309 54.7 288 82 261.7C109.3 235.3 136.7 203.7 163.8 198.3C191 193 218 214 245.2 228.3C272.3 242.7 299.7 250.3 327 257.8C354.3 265.3 381.7 272.7 409 280.8C436.3 289 463.7 298 491 304C518.3 310 545.7 313 573 310.8C600.3 308.7 627.7 301.3 654.8 298.3C682 295.3 709 296.7 736.2 284.7C763.3 272.7 790.7 247.3 818 236.2C845.3 225 872.7 228 886.3 229.5L900 231L900 161L886.3 161.8C872.7 162.7 845.3 164.3 818 160.7C790.7 157 763.3 148 736.2 148C709 148 682 157 654.8 161.5C627.7 166 600.3 166 573 166.7C545.7 167.3 518.3 168.7 491 154.3C463.7 140 436.3 110 409 107.8C381.7 105.7 354.3 131.3 327 141.8C299.7 152.3 272.3 147.7 245.2 135.7C218 123.7 191 104.3 163.8 105.2C136.7 106 109.3 127 82 142C54.7 157 27.3 166 13.7 170.5L0 175Z" fill="#5956cc"></path><path d="M0 420L13.7 418.5C27.3 417 54.7 414 82 414.7C109.3 415.3 136.7 419.7 163.8 421.2C191 422.7 218 421.3 245.2 413.2C272.3 405 299.7 390 327 388.5C354.3 387 381.7 399 409 405.7C436.3 412.3 463.7 413.7 491 409.2C518.3 404.7 545.7 394.3 573 389.8C600.3 385.3 627.7 386.7 654.8 393.3C682 400 709 412 736.2 412C763.3 412 790.7 400 818 398.5C845.3 397 872.7 406 886.3 410.5L900 415L900 229L886.3 227.5C872.7 226 845.3 223 818 234.2C790.7 245.3 763.3 270.7 736.2 282.7C709 294.7 682 293.3 654.8 296.3C627.7 299.3 600.3 306.7 573 308.8C545.7 311 518.3 308 491 302C463.7 296 436.3 287 409 278.8C381.7 270.7 354.3 263.3 327 255.8C299.7 248.3 272.3 240.7 245.2 226.3C218 212 191 191 163.8 196.3C136.7 201.7 109.3 233.3 82 259.7C54.7 286 27.3 307 13.7 317.5L0 328Z" fill="#524fbd"></path><path d="M0 451L13.7 451C27.3 451 54.7 451 82 451C109.3 451 136.7 451 163.8 451C191 451 218 451 245.2 451C272.3 451 299.7 451 327 451C354.3 451 381.7 451 409 451C436.3 451 463.7 451 491 451C518.3 451 545.7 451 573 451C600.3 451 627.7 451 654.8 451C682 451 709 451 736.2 451C763.3 451 790.7 451 818 451C845.3 451 872.7 451 886.3 451L900 451L900 413L886.3 408.5C872.7 404 845.3 395 818 396.5C790.7 398 763.3 410 736.2 410C709 410 682 398 654.8 391.3C627.7 384.7 600.3 383.3 573 387.8C545.7 392.3 518.3 402.7 491 407.2C463.7 411.7 436.3 410.3 409 403.7C381.7 397 354.3 385 327 386.5C299.7 388 272.3 403 245.2 411.2C218 419.3 191 420.7 163.8 419.2C136.7 417.7 109.3 413.3 82 412.7C54.7 412 27.3 415 13.7 416.5L0 418Z" fill="#4745a5"></path></svg>