<svg id="visual" viewBox="0 0 900 100" width="900" height="100" xmlns="http://www.w3.org/2000/svg" xmlns:xlink="http://www.w3.org/1999/xlink" version="1.1"><path d="M0 20L13.7 20.2C27.3 20.3 54.7 20.7 82 18.8C109.3 17 136.7 13 163.8 13C191 13 218 17 245.2 18.5C272.3 20 299.7 19 327 17C354.3 15 381.7 12 409 12.7C436.3 13.3 463.7 17.7 491 19.5C518.3 21.3 545.7 20.7 573 20.3C600.3 20 627.7 20 654.8 19.7C682 19.3 709 18.7 736.2 17.2C763.3 15.7 790.7 13.3 818 13C845.3 12.7 872.7 14.3 886.3 15.2L900 16L900 0L886.3 0C872.7 0 845.3 0 818 0C790.7 0 763.3 0 736.2 0C709 0 682 0 654.8 0C627.7 0 600.3 0 573 0C545.7 0 518.3 0 491 0C463.7 0 436.3 0 409 0C381.7 0 354.3 0 327 0C299.7 0 272.3 0 245.2 0C218 0 191 0 163.8 0C136.7 0 109.3 0 82 0C54.7 0 27.3 0 13.7 0L0 0Z" fill="#5956cc"></path><path d="M0 40L13.7 39C27.3 38 54.7 36 82 32.7C109.3 29.3 136.7 24.7 163.8 24.5C191 24.3 218 28.7 245.2 31.3C272.3 34 299.7 35 327 32.7C354.3 30.3 381.7 24.7 409 25.2C436.3 25.7 463.7 32.3 491 35.5C518.3 38.7 545.7 38.3 573 38.2C600.3 38 627.7 38 654.8 37C682 36 709 34 736.2 34C763.3 34 790.7 36 818 36.8C845.3 37.7 872.7 37.3 886.3 37.2L900 37L900 14L886.3 13.2C872.7 12.3 845.3 10.7 818 11C790.7 11.3 763.3 13.7 736.2 15.2C709 16.7 682 17.3 654.8 17.7C627.7 18 600.3 18 573 18.3C545.7 18.7 518.3 19.3 491 17.5C463.7 15.7 436.3 11.3 409 10.7C381.7 10 354.3 13 327 15C299.7 17 272.3 18 245.2 16.5C218 15 191 11 163.8 11C136.7 11 109.3 15 82 16.8C54.7 18.7 27.3 18.3 13.7 18.2L0 18Z" fill="#4e4bb3"></path><path d="M0 74L13.7 71.7C27.3 69.3 54.7 64.7 82 58.8C109.3 53 136.7 46 163.8 44.8C191 43.7 218 48.3 245.2 51.5C272.3 54.7 299.7 56.3 327 58C354.3 59.7 381.7 61.3 409 63.2C436.3 65 463.7 67 491 68.3C518.3 69.7 545.7 70.3 573 69.8C600.3 69.3 627.7 67.7 654.8 67C682 66.3 709 66.7 736.2 64C763.3 61.3 790.7 55.7 818 53.2C845.3 50.7 872.7 51.3 886.3 51.7L900 52L900 35L886.3 35.2C872.7 35.3 845.3 35.7 818 34.8C790.7 34 763.3 32 736.2 32C709 32 682 34 654.8 35C627.7 36 600.3 36 573 36.2C545.7 36.3 518.3 36.7 491 33.5C463.7 30.3 436.3 23.7 409 23.2C381.7 22.7 354.3 28.3 327 30.7C299.7 33 272.3 32 245.2 29.3C218 26.7 191 22.3 163.8 22.5C136.7 22.7 109.3 27.3 82 30.7C54.7 34 27.3 36 13.7 37L0 38Z" fill="#4745a5"></path><path d="M0 94L13.7 93.7C27.3 93.3 54.7 92.7 82 92.8C109.3 93 136.7 94 163.8 94.3C191 94.7 218 94.3 245.2 92.5C272.3 90.7 299.7 87.3 327 87C354.3 86.7 381.7 89.3 409 90.8C436.3 92.3 463.7 92.7 491 91.7C518.3 90.7 545.7 88.3 573 87.3C600.3 86.3 627.7 86.7 654.8 88.2C682 89.7 709 92.3 736.2 92.3C763.3 92.3 790.7 89.7 818 89.3C845.3 89 872.7 91 886.3 92L900 93L900 50L886.3 49.7C872.7 49.3 845.3 48.7 818 51.2C790.7 53.7 763.3 59.3 736.2 62C709 64.7 682 64.3 654.8 65C627.7 65.7 600.3 67.3 573 67.8C545.7 68.3 518.3 67.7 491 66.3C463.7 65 436.3 63 409 61.2C381.7 59.3 354.3 57.7 327 56C299.7 54.3 272.3 52.7 245.2 49.5C218 46.3 191 41.7 163.8 42.8C136.7 44 109.3 51 82 56.8C54.7 62.7 27.3 67.3 13.7 69.7L0 72Z" fill="#4e4bb3"></path><path d="M0 101L13.7 101C27.3 101 54.7 101 82 101C109.3 101 136.7 101 163.8 101C191 101 218 101 245.2 101C272.3 101 299.7 101 327 101C354.3 101 381.7 101 409 101C436.3 101 463.7 101 491 101C518.3 101 545.7 101 573 101C600.3 101 627.7 101 654.8 101C682 101 709 101 736.2 101C763.3 101 790.7 101 818 101C845.3 101 872.7 101 886.3 101L900 101L900 91L886.3 90C872.7 89 845.3 87 818 87.3C790.7 87.7 763.3 90.3 736.2 90.3C709 90.3 682 87.7 654.8 86.2C627.7 84.7 600.3 84.3 573 85.3C545.7 86.3 518.3 88.7 491 89.7C463.7 90.7 436.3 90.3 409 88.8C381.7 87.3 354.3 84.7 327 85C299.7 85.3 272.3 88.7 245.2 90.5C218 92.3 191 92.7 163.8 92.3C136.7 92 109.3 91 82 90.8C54.7 90.7 27.3 91.3 13.7 91.7L0 92Z" fill="#5956cc"></path></svg>