<svg id="visual" viewBox="0 0 900 100" width="900" height="100" xmlns="http://www.w3.org/2000/svg" xmlns:xlink="http://www.w3.org/1999/xlink" version="1.1"><path d="M0 21L13.7 22.2C27.3 23.3 54.7 25.7 82 28.5C109.3 31.3 136.7 34.7 163.8 36C191 37.3 218 36.7 245.2 35.2C272.3 33.7 299.7 31.3 327 30.3C354.3 29.3 381.7 29.7 409 32.7C436.3 35.7 463.7 41.3 491 42.3C518.3 43.3 545.7 39.7 573 34.8C600.3 30 627.7 24 654.8 23.5C682 23 709 28 736.2 32.5C763.3 37 790.7 41 818 39.7C845.3 38.3 872.7 31.7 886.3 28.3L900 25L900 0L886.3 0C872.7 0 845.3 0 818 0C790.7 0 763.3 0 736.2 0C709 0 682 0 654.8 0C627.7 0 600.3 0 573 0C545.7 0 518.3 0 491 0C463.7 0 436.3 0 409 0C381.7 0 354.3 0 327 0C299.7 0 272.3 0 245.2 0C218 0 191 0 163.8 0C136.7 0 109.3 0 82 0C54.7 0 27.3 0 13.7 0L0 0Z" fill="#ffdd6a"></path><path d="M0 33L13.7 34.8C27.3 36.7 54.7 40.3 82 45.2C109.3 50 136.7 56 163.8 59.2C191 62.3 218 62.7 245.2 60.3C272.3 58 299.7 53 327 50.3C354.3 47.7 381.7 47.3 409 48.8C436.3 50.3 463.7 53.7 491 56.5C518.3 59.3 545.7 61.7 573 59C600.3 56.3 627.7 48.7 654.8 46.3C682 44 709 47 736.2 49.8C763.3 52.7 790.7 55.3 818 53C845.3 50.7 872.7 43.3 886.3 39.7L900 36L900 23L886.3 26.3C872.7 29.7 845.3 36.3 818 37.7C790.7 39 763.3 35 736.2 30.5C709 26 682 21 654.8 21.5C627.7 22 600.3 28 573 32.8C545.7 37.7 518.3 41.3 491 40.3C463.7 39.3 436.3 33.7 409 30.7C381.7 27.7 354.3 27.3 327 28.3C299.7 29.3 272.3 31.7 245.2 33.2C218 34.7 191 35.3 163.8 34C136.7 32.7 109.3 29.3 82 26.5C54.7 23.7 27.3 21.3 13.7 20.2L0 19Z" fill="#ffd545"></path><path d="M0 52L13.7 51.8C27.3 51.7 54.7 51.3 82 55.5C109.3 59.7 136.7 68.3 163.8 72.7C191 77 218 77 245.2 74.2C272.3 71.3 299.7 65.7 327 64C354.3 62.3 381.7 64.7 409 66.7C436.3 68.7 463.7 70.3 491 71.2C518.3 72 545.7 72 573 69.3C600.3 66.7 627.7 61.3 654.8 59.2C682 57 709 58 736.2 60.8C763.3 63.7 790.7 68.3 818 67.5C845.3 66.7 872.7 60.3 886.3 57.2L900 54L900 34L886.3 37.7C872.7 41.3 845.3 48.7 818 51C790.7 53.3 763.3 50.7 736.2 47.8C709 45 682 42 654.8 44.3C627.7 46.7 600.3 54.3 573 57C545.7 59.7 518.3 57.3 491 54.5C463.7 51.7 436.3 48.3 409 46.8C381.7 45.3 354.3 45.7 327 48.3C299.7 51 272.3 56 245.2 58.3C218 60.7 191 60.3 163.8 57.2C136.7 54 109.3 48 82 43.2C54.7 38.3 27.3 34.7 13.7 32.8L0 31Z" fill="#ffcc00"></path><path d="M0 88L13.7 88.7C27.3 89.3 54.7 90.7 82 91.2C109.3 91.7 136.7 91.3 163.8 91.5C191 91.7 218 92.3 245.2 92.5C272.3 92.7 299.7 92.3 327 92.7C354.3 93 381.7 94 409 93.8C436.3 93.7 463.7 92.3 491 91.2C518.3 90 545.7 89 573 88.5C600.3 88 627.7 88 654.8 89.2C682 90.3 709 92.7 736.2 93.5C763.3 94.3 790.7 93.7 818 92C845.3 90.3 872.7 87.7 886.3 86.3L900 85L900 52L886.3 55.2C872.7 58.3 845.3 64.7 818 65.5C790.7 66.3 763.3 61.7 736.2 58.8C709 56 682 55 654.8 57.2C627.7 59.3 600.3 64.7 573 67.3C545.7 70 518.3 70 491 69.2C463.7 68.3 436.3 66.7 409 64.7C381.7 62.7 354.3 60.3 327 62C299.7 63.7 272.3 69.3 245.2 72.2C218 75 191 75 163.8 70.7C136.7 66.3 109.3 57.7 82 53.5C54.7 49.3 27.3 49.7 13.7 49.8L0 50Z" fill="#dcb002"></path><path d="M0 101L13.7 101C27.3 101 54.7 101 82 101C109.3 101 136.7 101 163.8 101C191 101 218 101 245.2 101C272.3 101 299.7 101 327 101C354.3 101 381.7 101 409 101C436.3 101 463.7 101 491 101C518.3 101 545.7 101 573 101C600.3 101 627.7 101 654.8 101C682 101 709 101 736.2 101C763.3 101 790.7 101 818 101C845.3 101 872.7 101 886.3 101L900 101L900 83L886.3 84.3C872.7 85.7 845.3 88.3 818 90C790.7 91.7 763.3 92.3 736.2 91.5C709 90.7 682 88.3 654.8 87.2C627.7 86 600.3 86 573 86.5C545.7 87 518.3 88 491 89.2C463.7 90.3 436.3 91.7 409 91.8C381.7 92 354.3 91 327 90.7C299.7 90.3 272.3 90.7 245.2 90.5C218 90.3 191 89.7 163.8 89.5C136.7 89.3 109.3 89.7 82 89.2C54.7 88.7 27.3 87.3 13.7 86.7L0 86Z" fill="#ba9503"></path></svg>