<svg id="visual" viewBox="0 0 900 450" width="900" height="450" xmlns="http://www.w3.org/2000/svg" xmlns:xlink="http://www.w3.org/1999/xlink" version="1.1"><path d="M0 177L13.7 159C27.3 141 54.7 105 82 95.2C109.3 85.3 136.7 101.7 163.8 120.3C191 139 218 160 245.2 160C272.3 160 299.7 139 327 143.5C354.3 148 381.7 178 409 177.3C436.3 176.7 463.7 145.3 491 137.2C518.3 129 545.7 144 573 151.5C600.3 159 627.7 159 654.8 158.2C682 157.3 709 155.7 736.2 159.3C763.3 163 790.7 172 818 175.8C845.3 179.7 872.7 178.3 886.3 177.7L900 177L900 0L886.3 0C872.7 0 845.3 0 818 0C790.7 0 763.3 0 736.2 0C709 0 682 0 654.8 0C627.7 0 600.3 0 573 0C545.7 0 518.3 0 491 0C463.7 0 436.3 0 409 0C381.7 0 354.3 0 327 0C299.7 0 272.3 0 245.2 0C218 0 191 0 163.8 0C136.7 0 109.3 0 82 0C54.7 0 27.3 0 13.7 0L0 0Z" fill="#ffcc00"></path><path d="M0 231L13.7 219C27.3 207 54.7 183 82 171.7C109.3 160.3 136.7 161.7 163.8 179.7C191 197.7 218 232.3 245.2 229.3C272.3 226.3 299.7 185.7 327 187.2C354.3 188.7 381.7 232.3 409 242.2C436.3 252 463.7 228 491 215.2C518.3 202.3 545.7 200.7 573 201.3C600.3 202 627.7 205 654.8 204.3C682 203.7 709 199.3 736.2 200.8C763.3 202.3 790.7 209.7 818 214.8C845.3 220 872.7 223 886.3 224.5L900 226L900 175L886.3 175.7C872.7 176.3 845.3 177.7 818 173.8C790.7 170 763.3 161 736.2 157.3C709 153.7 682 155.3 654.8 156.2C627.7 157 600.3 157 573 149.5C545.7 142 518.3 127 491 135.2C463.7 143.3 436.3 174.7 409 175.3C381.7 176 354.3 146 327 141.5C299.7 137 272.3 158 245.2 158C218 158 191 137 163.8 118.3C136.7 99.7 109.3 83.3 82 93.2C54.7 103 27.3 139 13.7 157L0 175Z" fill="#dfb200"></path><path d="M0 343L13.7 335.5C27.3 328 54.7 313 82 308.5C109.3 304 136.7 310 163.8 316.8C191 323.7 218 331.3 245.2 330.7C272.3 330 299.7 321 327 324.7C354.3 328.3 381.7 344.7 409 346.2C436.3 347.7 463.7 334.3 491 322.3C518.3 310.3 545.7 299.7 573 303.3C600.3 307 627.7 325 654.8 331.8C682 338.7 709 334.3 736.2 324.7C763.3 315 790.7 300 818 300C845.3 300 872.7 315 886.3 322.5L900 330L900 224L886.3 222.5C872.7 221 845.3 218 818 212.8C790.7 207.7 763.3 200.3 736.2 198.8C709 197.3 682 201.7 654.8 202.3C627.7 203 600.3 200 573 199.3C545.7 198.7 518.3 200.3 491 213.2C463.7 226 436.3 250 409 240.2C381.7 230.3 354.3 186.7 327 185.2C299.7 183.7 272.3 224.3 245.2 227.3C218 230.3 191 195.7 163.8 177.7C136.7 159.7 109.3 158.3 82 169.7C54.7 181 27.3 205 13.7 217L0 229Z" fill="#cca300"></path><path d="M0 384L13.7 385.5C27.3 387 54.7 390 82 393.7C109.3 397.3 136.7 401.7 163.8 402.3C191 403 218 400 245.2 394.8C272.3 389.7 299.7 382.3 327 386.8C354.3 391.3 381.7 407.7 409 413.7C436.3 419.7 463.7 415.3 491 410.8C518.3 406.3 545.7 401.7 573 397.8C600.3 394 627.7 391 654.8 394C682 397 709 406 736.2 408.3C763.3 410.7 790.7 406.3 818 403.3C845.3 400.3 872.7 398.7 886.3 397.8L900 397L900 328L886.3 320.5C872.7 313 845.3 298 818 298C790.7 298 763.3 313 736.2 322.7C709 332.3 682 336.7 654.8 329.8C627.7 323 600.3 305 573 301.3C545.7 297.7 518.3 308.3 491 320.3C463.7 332.3 436.3 345.7 409 344.2C381.7 342.7 354.3 326.3 327 322.7C299.7 319 272.3 328 245.2 328.7C218 329.3 191 321.7 163.8 314.8C136.7 308 109.3 302 82 306.5C54.7 311 27.3 326 13.7 333.5L0 341Z" fill="#dfb200"></path><path d="M0 451L13.7 451C27.3 451 54.7 451 82 451C109.3 451 136.7 451 163.8 451C191 451 218 451 245.2 451C272.3 451 299.7 451 327 451C354.3 451 381.7 451 409 451C436.3 451 463.7 451 491 451C518.3 451 545.7 451 573 451C600.3 451 627.7 451 654.8 451C682 451 709 451 736.2 451C763.3 451 790.7 451 818 451C845.3 451 872.7 451 886.3 451L900 451L900 395L886.3 395.8C872.7 396.7 845.3 398.3 818 401.3C790.7 404.3 763.3 408.7 736.2 406.3C709 404 682 395 654.8 392C627.7 389 600.3 392 573 395.8C545.7 399.7 518.3 404.3 491 408.8C463.7 413.3 436.3 417.7 409 411.7C381.7 405.7 354.3 389.3 327 384.8C299.7 380.3 272.3 387.7 245.2 392.8C218 398 191 401 163.8 400.3C136.7 399.7 109.3 395.3 82 391.7C54.7 388 27.3 385 13.7 383.5L0 382Z" fill="#ffcc00"></path></svg>